<svg class="pokedex" data-name="Calque 1" xmlns="http://www.w3.org/2000/svg" viewBox="0 0 775.8 511.3"><defs><style>.cls-1{fill:#600707;}.cls-2{fill:#bf0d0d;}.cls-3{fill:#afafaf;}.cls-4{fill:#494949;}.cls-5{fill:#8a0000;}.cls-6{fill:#660808;}.cls-7{fill:#6a0808;}.cls-8{fill:#810101;}.cls-9{fill:#840000;}.cls-10{fill:#860000;}.cls-11{fill:#710606;}.cls-12{fill:#930a0a;}.cls-13{fill:#930202;}.cls-14{fill:#ba0d0d;}.cls-15{fill:#bd0c0c;}.cls-16{fill:#b60b0b;}.cls-17{fill:#a50707;}.cls-18{fill:#9d0505;}.cls-19{fill:#aa0c0c;}.cls-20{fill:#a90707;}.cls-21{fill:#a10606;}.cls-22{fill:#ad0808;}.cls-23{fill:#940202;}.cls-24{fill:#9b0404;}.cls-25{fill:#8e0101;}.cls-26{fill:#af0909;}.cls-27{fill:#a00b0b;}.cls-28{fill:#710808;}.cls-29{fill:#ae0c0c;}.cls-30{fill:#830909;}.cls-31{fill:#900a0a;}.cls-32{fill:#9c0b0b;}.cls-33{fill:#7a0808;}.cls-34{fill:#a50b0b;}.cls-35{fill:#660707;}.cls-36{fill:#690606;}.cls-37{fill:#760303;}.cls-38{fill:#7c0202;}.cls-39{fill:#7d0202;}.cls-40{fill:#b60d0d;}.cls-41{fill:#fefefe;}.cls-42{fill:#740a04;}.cls-43{fill:#730404;}.cls-44{fill:#700905;}.cls-45{fill:#4cd1ef;}.cls-46{fill:#53d3ef;}.cls-47{fill:#f9f733;}.cls-48{fill:#d33333;}.cls-49{fill:#60e234;}.cls-50{fill:#9ff1f9;}.cls-51{fill:#fcfc42;}.cls-52{fill:#dc3f3f;}.cls-53{fill:#6fea42;}.cls-54{fill:#69d8f1;}.cls-55{fill:#5cd5f0;}.cls-56{fill:#76dcf2;}.cls-57{fill:#61d6f0;}.cls-58{fill:#83dff3;}.cls-59{fill:#8be1f4;}.cls-60{fill:#7bddf2;}.cls-61{fill:#fcfc50;}.cls-62{fill:#e24a4a;}.cls-63{fill:#89f158;}.cls-64{fill:#92e3f4;}.cls-65{fill:#fbfb5c;}.cls-66{fill:#e85555;}.cls-67{fill:#9ff76b;}.cls-68{fill:#9ce5f5;}.cls-69{fill:#fbfb6c;}.cls-70{fill:#ef6161;}.cls-71{fill:#fbfb7c;}.cls-72{fill:#f46a6a;}.cls-73{fill:#8d0101;}.cls-74{fill:#620707;}.cls-75{fill:#222;}.cls-76{fill:#0935e5;}.cls-77{fill:#111;}.cls-78{fill:#1e5bf0;}.cls-79{fill:#2262f2;}.cls-80{fill:#276cf5;}.cls-81{fill:#2467f3;}.cls-82{fill:#082c01;}.cls-83{fill:#612404;}.cls-84{fill:#2c71f3;}.cls-85{fill:#f87f38;}.cls-86{fill:#1f9f07;}.cls-87{fill:#29bf0a;}.cls-88{fill:#fb8e4b;}.cls-89{fill:#1b8d06;}.cls-90{fill:#f7772e;}.cls-91{fill:#167d05;}.cls-92{fill:#f56f24;}.cls-93{fill:#2ecf0b;}.cls-94{fill:#fd9655;}.cls-95{fill:#121111;}.cls-96{fill:#174eec;}.cls-97{fill:#aa0808;}.cls-98{fill:#a10505;}.cls-99{fill:#9a0404;}.cls-100{fill:#b80b0b;}.cls-101{fill:#920202;}.cls-102{fill:#b30a0a;}.cls-103{fill:#970303;}.cls-104{fill:#7f0909;}.cls-105{fill:#8c0a0a;}.cls-106{fill:#940a0a;}.cls-107{fill:#1b1b1b;}.cls-108{fill:#1a54ee;}.cls-109{fill:#1247ea;}.cls-110{fill:#0c3ce8;}.cls-111{fill:#0f42e9;}.cls-112{fill:#fa8742;}.cls-113{fill:#24b009;}.cls-114{fill:#171717;}</style></defs><title>pokedex2</title><g id="Calque_3" data-name="Calque 3"><path class="cls-1" d="M706.1,665.1v11.1h-4.5q-187.8,0-375.5-.1c-22.5,0-36.2-13.7-36.2-36.1V351c0-48.5-.2-97-.3-145.5-.1-15.2,6.2-26.3,20-32.9a9.3,9.3,0,0,1,2.4-.5c.3,2.6-2,3.9-3.2,5.6a28.67,28.67,0,0,0-5.8,17.1c0,21.8.1,43.6-.1,65.4,0,4,1.2,5,5.1,5,43.4-.1,86.9.4,130.3-.3,19.6-.3,37.6-7.4,53.5-19.1,1.3-1,2.8-1.8,4.2-2.7,1-.4,1.2.3,1.3,1-.6,1.7-1.9,2.7-3.3,3.8-3.1,1.9-5.2,4.8-7.4,7.6-14.1,11.9-30.5,18.1-48.5,21a99.78,99.78,0,0,1-16.4,1.2c-36-.1-72,0-108,0-1.7,0-3.3,0-5,.1-2.6.1-4,1.2-4.1,3.9-.1,1.5-.1,3-.1,4.5v345c0,10.7,2.8,20,11.8,26.8,5,3.8,10.8,5.1,16.8,5.6,2.3.2,4.7.1,7,.1h297c3.5,0,7-.1,10.5.1a23.49,23.49,0,0,0,2.6.1h21.9c1.1-.1,2.1,0,3.2,0,1.9-.1,3.7,0,5.6,0,1.3-.1,2.7,0,4,0H693c1.4-.1,2.7,0,4.1,0a58.09,58.09,0,0,1,5.9.1,4.38,4.38,0,0,1,3.1,1.1" transform="translate(-289.6 -165)"/><path class="cls-2" d="M649,665.1q-85.95,0-172,.1H334.5c-14.5,0-25.9-7.9-29.8-20.6a35.86,35.86,0,0,1-1.7-10.8q0-176.25-.1-352.4c0-4.2,1.2-5.3,5.3-5.3,39.8.1,79.7.6,119.5-.2,22.1-.5,42.3-7.9,59.3-22.6,2.5-1.8,4.4-4.4,6.9-6.1l3-3c1.4-2.6,3.2-4.8,6-5.9,16.1-12.6,34.8-18.9,54.7-22.1,10.9-1.7,21.9-.8,32.8-.9,19.5-.2,38.9,0,58.4,0a4.62,4.62,0,0,0,.7.7c1,2,.7,4.2.7,6.4V658C650.4,660.4,650.9,663,649,665.1Z" transform="translate(-289.6 -165)"/><path class="cls-3" d="M478.3,278.3H604.8c15.5,0,23.2,10,23.2,30.2V532c0,19.6-7.9,29.8-23,29.8q-115.95,0-231.9.1c-3.4,0-5.9-1.2-8.3-4.4q-16.8-22.05-33.9-43.7a13.18,13.18,0,0,1-2.9-9c.1-66.1,0-132.3.1-198.4,0-17.5,8.2-28,21.8-28.1Z" transform="translate(-289.6 -165)"/><path class="cls-4" d="M478.2,542.2H370.7c-14.9,0-22.7-13.6-22.7-39.3V328.6c0-24.4,8.1-38.4,22.3-38.4H586.7c14.2,0,22.3,14,22.3,38.5V503.9c0,24.6-8,38.4-22.3,38.4Q532.55,542.15,478.2,542.2Z" transform="translate(-289.6 -165)"/><path class="cls-5" d="M312.1,172.1c8.6-5.6,18-7.1,28.3-7.1q155.1.3,310.1.1a21.05,21.05,0,0,1,2.5.2,1.85,1.85,0,0,1,0,2.5c-2.1,1.9-2.6,4.4-2.6,7.2.1,11.1,0,22.2,0,33.2,0,2.3.3,4.7-1.1,6.7-2.4,2.2-5.3,1.6-8.1,1.6-22.9.1-45.9-.1-68.8.1A115.63,115.63,0,0,0,508,236.2a38.71,38.71,0,0,1-3.4,2.1c-4.4.3-6.3,4.3-9.4,6.6-19.8,15.5-42.4,22.1-67.5,21.9-38-.4-75.9-.1-113.9-.1h-5.5c-5.8-.2-6.9-1.3-7-7.2-.1-16,0-32,0-48,0-4.7.1-9.3,0-14C301.2,187.4,304.5,178.9,312.1,172.1Z" transform="translate(-289.6 -165)"/><path class="cls-6" d="M653,167.1v-1.8c15.8-.1,31.7-.1,47.5-.2,1.7,0,3,.2,2.8,2.3a14.26,14.26,0,0,1,.9,2.7c.4,13.6.1,27.3.2,40.9a7.62,7.62,0,0,1-.8,3.9c-1.9,2.2-4.5,1.6-7,1.7-1.4.1-2.9,0-4.3,0H685c-1.6.1-3.2,0-4.8,0H658.9c-1.1.1-2.3,0-3.4,0a5.33,5.33,0,0,1-3.4-1.1c-1.4-1.4-1.5-3.3-1.5-5.1V174.6A10,10,0,0,1,653,167.1Z" transform="translate(-289.6 -165)"/><path class="cls-2" d="M703.2,169.1c0-.6.1-1.2.1-1.7,3.3,1,2.9,3.7,2.9,6.1.1,13.8.1,27.6.1,41.4l-.3.2c-2.9-.8-1.9-3.2-1.9-4.9-.1-11.6,0-23.2-.1-34.8C704,173.3,704.3,171.1,703.2,169.1Z" transform="translate(-289.6 -165)"/><path class="cls-7" d="M703.2,169.1c2.4,1.4,1.8,3.7,1.8,5.8v35.2c0,1.7-.7,3.7.9,5.2,0,2.3.1,4.7.1,7V658.7c0,2.2.1,4.3.1,6.5h-3.2c-1.5-1.6-1.5-3.6-1.5-5.6,0-14.8-.2-29.5.1-44.3,0-16.7-.1-33.4,0-50.1q.15-124.95,0-249.8c-.1-16.7,0-33.4,0-50.1-.3-14.8-.1-29.6-.1-44.4,0-2,.1-4,1.6-5.6C703.1,199.9,703.1,184.5,703.2,169.1Z" transform="translate(-289.6 -165)"/><path class="cls-7" d="M653,167.1c-2.1,15.3-.5,30.6-.9,45.9a5,5,0,0,0,1,2.1c1.8,1.9,1.5,4.3,1.5,6.6V265q.3,25.05,0,50.1,0,125,0,249.8c-.1,16.7,0,33.4,0,50.1.1,14.6,0,29.3,0,43.9,0,2.2.2,4.4-1.5,6.1h-2c-1.6-2.4-.9-5.2-.9-7.8q0-217.2-.1-434.4c0-2.6.7-5.4-1-7.8h0V173.9C649.1,171.1,649.1,168,653,167.1Z" transform="translate(-289.6 -165)"/><path class="cls-8" d="M397,217.2c-.6,23.1-18.6,41.7-41.8,41.8a41.41,41.41,0,0,1-42-41.9c.1-23.3,18-41.6,41.6-41.8S396.4,193.7,397,217.2Z" transform="translate(-289.6 -165)"/><path class="cls-9" d="M451,201.2c-7.9,2.6-14.3.8-18.9-5.4-2.8-3.7-3.6-3.7-6.8.8-4,5.7-10,6.2-16,5.3-5.4-.8-9.2-4.2-10.8-9.7-2.2-7.6.8-15.9,7.3-18.8,5.2-2.4,15.8-2.4,20,5,1.8,3.2,3.7,3.9,6.2.4,4.8-6.7,11.4-8,19-5.6a.94.94,0,0,1-.1,1.3,4.64,4.64,0,0,1-3.8.5c-6-1.2-9.9,2.3-12.8,6.6a9.77,9.77,0,0,0,0,11.3c2.9,4.3,6.8,7.8,12.8,6.6a4.3,4.3,0,0,1,3.8.5,1.1,1.1,0,0,1,.3.9C451.2,201,451.1,201.2,451,201.2Z" transform="translate(-289.6 -165)"/><path class="cls-10" d="M451,201.2v-1c-.5-1.9,1.3-2.5,2.3-3.5,5.9-6.1,5.9-12.9,0-19-1-1-2.7-1.6-2.3-3.5v-1c3.4-.4,5.1,2.3,6.7,4.4,2.6,3.5,5,3.2,7.7.4,2.9-3,5.9-5.6,10.3-5.9,5.5-.5,10.4.4,14.3,4.7s4.5,14.2,1.3,19.5c-2.5,4.2-10.2,7-15.7,6.1-4.6-.7-8.5-2.5-11.3-6.4-1.9-2.7-3.8-2.4-6,.1C456.4,198.3,454.9,201.4,451,201.2Z" transform="translate(-289.6 -165)"/><path class="cls-11" d="M503.1,238.2a21.05,21.05,0,0,1-6,5.9l-1-1C498.1,241.2,499,237.3,503.1,238.2Z" transform="translate(-289.6 -165)"/><path class="cls-5" d="M649,215.2a1.9,1.9,0,0,1,2,1.8c0,1,.1,2,.1,3V665.1a14.77,14.77,0,0,1-2.1-.1c0-25.5.1-51,.1-76.5Q649,401.9,649,215.2Z" transform="translate(-289.6 -165)"/><path class="cls-11" d="M494,247.2c-1.9,2.5-3.7,5.1-6.9,6.1C488.9,250.7,490.6,248,494,247.2Z" transform="translate(-289.6 -165)"/><path class="cls-12" d="M668,213.1h-1.5c-6.5,0-6.5,0-6.5-6.3,0-10.6-.1-21.2,0-31.8.1-8.2-1.7-7.9,8-7.8,1.5,1.6,1.5,3.6,1.5,5.6v34.7C669.5,209.5,669.6,211.5,668,213.1Z" transform="translate(-289.6 -165)"/><path class="cls-13" d="M703,215.2v49.9c-1.5,1.4-3.3,1.4-5.1,1-1.9-.6-2.3-2.1-2.3-3.9-.2-15-.1-30.1-.1-45.1a3.29,3.29,0,0,1,.6-1.9Z" transform="translate(-289.6 -165)"/><path class="cls-14" d="M681,213.1h-6c-1.7-1.7-1.6-3.9-1.6-6.1-.1-11.2-.1-22.5,0-33.7,0-2.1,0-4.3,1.6-6.1h6c1.6,1.6,1.5,3.6,1.5,5.6v34.7C682.5,209.5,682.6,211.5,681,213.1Z" transform="translate(-289.6 -165)"/><path class="cls-15" d="M675,215.3h5c2,.9,1.6,2.7,1.6,4.3.1,14.1-.1,28.3,0,42.4,0,1.6.4,3.5-1.8,4.1-2.1.4-4.1.5-5.5-1.6a12.41,12.41,0,0,1-.7-5.4V221.3C673.5,219.2,673.3,217,675,215.3Z" transform="translate(-289.6 -165)"/><path class="cls-16" d="M681,265.1c-1.1-9.9-.1-19.9-.5-29.8-.2-6.7.6-13.4-.5-20h5a6,6,0,0,1,1.5,4.6v40.8a7.22,7.22,0,0,1-1,4.3C684,266.3,682.5,266.4,681,265.1Z" transform="translate(-289.6 -165)"/><path class="cls-17" d="M688,215.3h4c2.1,1.1,1.6,3.1,1.6,4.8,0,13.7-.1,27.5,0,41.2,0,1.7.7,3.8-1.6,4.7a4.21,4.21,0,0,1-4-1.1c-1.5-1.8-1.4-4-1.4-6.2V220.8C686.5,218.9,686.5,216.9,688,215.3Z" transform="translate(-289.6 -165)"/><path class="cls-18" d="M693,265.1c-1.1-9.9-.1-19.9-.5-29.8-.2-6.7.6-13.4-.5-20h4c1.1,9.3.2,18.6.5,27.9.3,7.3-.6,14.7.5,22A2.75,2.75,0,0,1,693,265.1Z" transform="translate(-289.6 -165)"/><path class="cls-19" d="M675.1,167.3v45.8h-4c-1.5-1.6-1.5-3.6-1.5-5.6V172.8c0-2,0-4,1.5-5.6C672.4,167.3,673.7,167.3,675.1,167.3Z" transform="translate(-289.6 -165)"/><path class="cls-20" d="M665.1,215.2h4a5.71,5.71,0,0,1,1.4,4.1c0,14.4.2,28.9-.1,43.3a3.25,3.25,0,0,1-.4,1.4,2.67,2.67,0,0,1-2.6,1.8c-2.1-.2-2.8-1.6-2.8-3.5-.1-15.4-.4-30.9.1-46.3A2,2,0,0,1,665.1,215.2Z" transform="translate(-289.6 -165)"/><path class="cls-21" d="M665.1,215.2c1.1,10.6.1,21.2.5,31.8.2,6-.6,12.1.5,18-1.5,1.3-3,1.2-4.5-.1-1.2-1.8-1-3.8-1-5.8V221.2c0-2.2-.2-4.4,1.5-6.1A29.09,29.09,0,0,0,665.1,215.2Z" transform="translate(-289.6 -165)"/><path class="cls-22" d="M688,215.3v44.1c0,2-.2,4,1,5.8a2.54,2.54,0,0,1-4,0V215.4C686,215.3,687,215.3,688,215.3Z" transform="translate(-289.6 -165)"/><path class="cls-23" d="M656,215.2h3c1.4,1.5,1.5,3.3,1.5,5.1v39.9a8.12,8.12,0,0,1-1.1,4.8,2.88,2.88,0,0,1-3.7.2c-1.3-1.7-1.2-3.7-1.2-5.7V221.3C654.5,219.2,654.4,217,656,215.2Z" transform="translate(-289.6 -165)"/><path class="cls-24" d="M659,265.1V215.2h3v49.9A2,2,0,0,1,659,265.1Z" transform="translate(-289.6 -165)"/><path class="cls-25" d="M656,215.2v49.9a2.08,2.08,0,0,1-3,0v-50C654.1,215.2,655,215.2,656,215.2Z" transform="translate(-289.6 -165)"/><path class="cls-26" d="M669,265.1V215.3h3a6,6,0,0,1,1.5,4.6v41.2a7.35,7.35,0,0,1-.9,3.8A2.46,2.46,0,0,1,669,265.1Z" transform="translate(-289.6 -165)"/><path class="cls-16" d="M672,265.1V215.3h3v49.8A2,2,0,0,1,672,265.1Z" transform="translate(-289.6 -165)"/><path class="cls-27" d="M671,167.3v45.8h-3V167.2C669,167.2,670,167.2,671,167.3Z" transform="translate(-289.6 -165)"/><path class="cls-28" d="M697,167.2c2.5-.2,3,1.2,3,3.4q-.15,19.65,0,39.3c0,2.2-.5,3.6-3,3.4-1.5-1.6-1.4-3.6-1.4-5.6V173C695.6,170.8,695.5,168.8,697,167.2Z" transform="translate(-289.6 -165)"/><path class="cls-29" d="M681,213.1V167.3h3c1.6,1.6,1.4,3.7,1.4,5.7v34.5c0,2,.2,4-1.4,5.7C683,213.1,682,213.1,681,213.1Z" transform="translate(-289.6 -165)"/><path class="cls-30" d="M692,167.2h3c1.1,1.2,1,2.8,1,4.3v37.4c0,1.5.1,3-1,4.3h-3c-1.5-1.6-1.5-3.6-1.5-5.6V172.9C690.5,170.8,690.5,168.8,692,167.2Z" transform="translate(-289.6 -165)"/><path class="cls-31" d="M692,167.2v45.9h-3c-1.5-1.6-1.5-3.6-1.5-5.6V172.8c0-2-.1-4,1.5-5.6Z" transform="translate(-289.6 -165)"/><path class="cls-32" d="M689,167.2v45.9h-3c-1-1.1-1-2.4-1-3.8V171a5.25,5.25,0,0,1,1-3.8Z" transform="translate(-289.6 -165)"/><path class="cls-33" d="M695,213.1v-46h2v46A13.33,13.33,0,0,1,695,213.1Z" transform="translate(-289.6 -165)"/><path class="cls-34" d="M686,167.2v45.9h-2V167.3C684.7,167.3,685.3,167.2,686,167.2Z" transform="translate(-289.6 -165)"/><path class="cls-35" d="M672,265.1h31v50.1a4.74,4.74,0,0,1-2.8,1.2,17.7,17.7,0,0,1-2.3.1H658.8c-1,0-2.1,0-3.1-.1a5.32,5.32,0,0,1-2.9-1.2V265.1H672Z" transform="translate(-289.6 -165)"/><path class="cls-36" d="M336,183.2c12.7-6.5,25.3-6.5,38,0,12.8,7.7,19.8,19.2,19.9,34.1,0,18.4-12.9,34.2-32.3,38.1-21.6,4.4-48.2-13.7-45.4-42.2C317.5,200.1,324.3,189.8,336,183.2Z" transform="translate(-289.6 -165)"/><path class="cls-37" d="M336,183.2c-2.9,2.7-5.8,5.4-8.6,8.1-15,14.2-13.7,42.4,4.2,55.7s40.9,10,54.2-7.4c7.8-10.2,10.1-24.8,3.4-39-3.5-7.5-10-11.7-15.2-17.4,6.5,1.8,10.9,6.4,14,11.8,9.2,16.1,10.4,29.1-1.3,45.9-11,15.7-32.1,21-49.9,11.6a39.93,39.93,0,0,1-7.8-65.7A13.88,13.88,0,0,1,336,183.2Z" transform="translate(-289.6 -165)"/><path class="cls-38" d="M451,174.2c10.7,8.6,10.7,17.4,0,26-6.3,1.4-11.9.9-16.4-4.8-2.9-3.7-4.2-10.4-2-14.2,2.9-4.9,9.4-8.5,14-7.7C448.1,173.8,449.6,174,451,174.2Z" transform="translate(-289.6 -165)"/><path class="cls-39" d="M412.9,173.2c7-.2,14.2,7,14.1,14s-6.8,13.7-13.8,13.9-14.2-7-14.1-14S405.9,173.4,412.9,173.2Z" transform="translate(-289.6 -165)"/><path class="cls-38" d="M478,173.2c7.4,0,14.1,6.7,14,14.1s-6.9,14.1-14.2,13.9-13.7-6.6-13.7-13.9C463.9,179.9,470.6,173.2,478,173.2Z" transform="translate(-289.6 -165)"/><path class="cls-12" d="M671.1,313.1c-11.1.3-11.1.3-11.1-10.7,0-9.8.2-19.6-.1-29.3-.1-4.4.9-6.6,5.7-5.9a33.48,33.48,0,0,0,5.5.1c1.5,1.6,1.5,3.6,1.5,5.6.1,11.6.1,23.1,0,34.7C672.6,309.5,672.6,311.5,671.1,313.1Z" transform="translate(-289.6 -165)"/><path class="cls-40" d="M671.1,313.1V267.3H681c1.6,1.6,1.5,3.6,1.5,5.6v34.7c0,2,.1,4-1.5,5.6C677.7,313.1,674.4,313.1,671.1,313.1Z" transform="translate(-289.6 -165)"/><path class="cls-28" d="M697,267.2c2.5-.2,3,1.2,3,3.4q-.15,19.65,0,39.3c0,2.2-.5,3.6-3,3.4-1.5-1.6-1.4-3.6-1.4-5.6V273C695.6,270.8,695.5,268.8,697,267.2Z" transform="translate(-289.6 -165)"/><path class="cls-30" d="M695,313.1h-3c-1.5-1.6-1.5-3.6-1.5-5.6V272.8c0-2,0-4,1.5-5.6h3c1.1,1.2,1,2.8,1,4.3v37.4C696,310.4,696.1,311.9,695,313.1Z" transform="translate(-289.6 -165)"/><path class="cls-31" d="M692,267.2v45.9h-3c-1.5-1.6-1.5-3.6-1.5-5.6V272.8c0-2-.1-4,1.5-5.6Z" transform="translate(-289.6 -165)"/><path class="cls-32" d="M689,267.2v45.9h-3c-1.5-1.6-1.4-3.6-1.4-5.6V272.9c0-2-.1-4,1.4-5.6C687,267.2,688,267.2,689,267.2Z" transform="translate(-289.6 -165)"/><path class="cls-29" d="M681,313.1V267.3h3a5,5,0,0,1,1,3.7v38.3c0,1.3,0,2.7-1,3.7C683,313.1,682,313.1,681,313.1Z" transform="translate(-289.6 -165)"/><path class="cls-33" d="M695,313.1v-46h2v46A13.33,13.33,0,0,1,695,313.1Z" transform="translate(-289.6 -165)"/><path class="cls-34" d="M684,313.1V267.3h2v45.9A13.4,13.4,0,0,0,684,313.1Z" transform="translate(-289.6 -165)"/><path class="cls-41" d="M390,217.3a35,35,0,1,1-34.7-35.2A35.13,35.13,0,0,1,390,217.3Z" transform="translate(-289.6 -165)"/><path class="cls-42" d="M445.2,199.1c-6.2.2-12.2-5.8-12.1-12a12.62,12.62,0,0,1,11.8-11.9c6.2-.2,12.2,5.8,12.1,12A12.62,12.62,0,0,1,445.2,199.1Z" transform="translate(-289.6 -165)"/><path class="cls-43" d="M413.4,175.2c6.9.1,11.7,5.1,11.7,12.1,0,7.2-5,12-12.3,11.9-7.1-.1-11.9-5.3-11.7-12.6C401.2,179.7,406.3,175,413.4,175.2Z" transform="translate(-289.6 -165)"/><path class="cls-44" d="M490,187.3c-.1,6.3-6.2,12.1-12.3,11.8s-11.7-6-11.6-12.1c.1-6.3,6.2-12.1,12.3-11.8S490.1,181.3,490,187.3Z" transform="translate(-289.6 -165)"/><path class="cls-45" d="M384.8,216.1v2.1c-.8,1.6.2,3.5-.7,5.1a29.66,29.66,0,0,1-33.6,23.6,30.18,30.18,0,0,1-25.3-32.1c1.3-19.8,21.4-32.3,40.8-25.4.1,1-.6,1.4-1.4,1.8-3.8.8-7.6.4-11.4.4-4.3,0-8.2,1-11.5,3.9-12.8,6.1-16.4,27.3-5.7,38.7,10.5,11.2,23.6,10.2,34.3,3.8,7.6-4.5,11.9-17.2,9.9-26-1.6-6.7-5.5-11.6-10.7-15.7a5.11,5.11,0,0,1-2-4.1c.3-.8.6-1.5,1.7-1,7.5,4.8,13,11,14.9,19.9C385,212.6,384,214.5,384.8,216.1Z" transform="translate(-289.6 -165)"/><path class="cls-46" d="M369.2,191.1a12,12,0,0,1-1.2,1.1c-1.7.4-3,.1-3-2a7,7,0,0,1,1-.8A5.32,5.32,0,0,1,369.2,191.1Z" transform="translate(-289.6 -165)"/><path class="cls-46" d="M384.8,216.1c-1.4-1.5-.6-3.4-.7-5.1C385.2,212.6,384.9,214.4,384.8,216.1Z" transform="translate(-289.6 -165)"/><path class="cls-46" d="M384.1,223.3c.1-1.7-.6-3.5.7-5.1C384.9,220,385.2,221.7,384.1,223.3Z" transform="translate(-289.6 -165)"/><path class="cls-47" d="M445.2,197.1a10.25,10.25,0,0,1-10.1-9.6,10,10,0,1,1,10.1,9.6Z" transform="translate(-289.6 -165)"/><path class="cls-48" d="M412.8,177.2c5-.2,10,4.6,10.2,9.7.2,4.9-4.6,10-9.7,10.2s-10-4.6-10.2-9.7S407.7,177.4,412.8,177.2Z" transform="translate(-289.6 -165)"/><path class="cls-49" d="M488,187.1a10,10,0,1,1-10.1-9.8A10.35,10.35,0,0,1,488,187.1Z" transform="translate(-289.6 -165)"/><path class="cls-50" d="M365,190.2c1,.7,2,1.3,3,2,.6,1,1.3,2,1.9,3a4.47,4.47,0,0,1,1.2,2.6,8.33,8.33,0,0,1-.3,2.2,12.38,12.38,0,0,1-2.1,4.5,12.67,12.67,0,0,1-3.4,2.7,9.38,9.38,0,0,1-2.8,1c-1.3.2-2.6.2-3.9.3h-8a25.61,25.61,0,0,1-3.9-.3,10.94,10.94,0,0,1-5.1-2.6,9.88,9.88,0,0,1-2.2-3.5,6.47,6.47,0,0,1-.4-1.3,13.1,13.1,0,0,1,0-2.8,3.91,3.91,0,0,1,1.9-2.9c2-3.9,5.6-4.8,9.5-5C355.3,190.1,360.1,190.2,365,190.2Z" transform="translate(-289.6 -165)"/><path class="cls-46" d="M370.1,198.2c-.1-1-.1-2-.2-3,16.7,10.9,14.5,32.1,3.5,41.9-9.1,8.1-26.4,10.2-36.5-.3-8-8.4-10.8-17.5-7.4-28.1,1.8-5.7,4.2-12,11.4-13.6l-.9,3c-1,2.1-2.8,3.7-4,5.6a24.6,24.6,0,0,0,2.8,30.3c6.1,6.3,16.5,7.9,26,4.2,8.3-3.2,13.8-13,13.5-22C378.1,209,374.2,203.6,370.1,198.2Z" transform="translate(-289.6 -165)"/><path class="cls-51" d="M444.6,195.2a7.35,7.35,0,0,1-7.6-7.3c-.1-5.2,3.1-8.7,8-8.7a7.77,7.77,0,0,1,8,8.2C452.9,192,449.6,195.1,444.6,195.2Z" transform="translate(-289.6 -165)"/><path class="cls-52" d="M421,187.4a7.29,7.29,0,0,1-7.2,7.7c-5.2.2-8.8-3-8.8-7.9a7.72,7.72,0,0,1,8.1-8.1C417.8,179.2,421,182.5,421,187.4Z" transform="translate(-289.6 -165)"/><path class="cls-53" d="M486,187.6a7.73,7.73,0,0,1-7.7,7.5,8.29,8.29,0,0,1-8.3-8.6c.1-3,4.6-7.4,7.6-7.4A8.35,8.35,0,0,1,486,187.6Z" transform="translate(-289.6 -165)"/><path class="cls-54" d="M340,202.1c.7,1,1.3,2,2,3,.6,2.2-.8,3.8-1.6,5.6-2.5,5.8-1.3,13,2.7,17.2a16.4,16.4,0,0,0,17.4,4.2c6.4-2.5,10.7-8.8,10.2-15-.2-3.2-.1-6.3-2.4-8.9a3.05,3.05,0,0,1-.4-4.1c.7-1.3,1.3-2.7,2-4a3.84,3.84,0,0,1,1.1,1.1c2.9,5.1,5.1,10.1,5.4,16.3.5,10-7.5,18.3-14.8,20.2-8.4,2.1-16.9,1.4-23.3-5.9C331.2,223.7,332,209.2,340,202.1Z" transform="translate(-289.6 -165)"/><path class="cls-55" d="M370,201.2v-1c0-.7.1-1.3.1-2,5.8,3.2,8.3,8.9,9.2,14.8,1.5,9.4-1.7,17.4-9.2,23.7-5,4.2-17.4,6-23.6,3.6-13.9-5.5-16.6-16.9-15.4-27.8a19.06,19.06,0,0,1,8.8-14.3v3a25.33,25.33,0,0,0-6.1,19.3c.9,9.2,9,17.4,18.2,17.8,7,.3,13-.8,18.1-6.2a21.61,21.61,0,0,0,2.7-26.9A36,36,0,0,0,370,201.2Z" transform="translate(-289.6 -165)"/><path class="cls-56" d="M368,204.1c1.3,4.5,4.5,8,4.3,13.3a17.71,17.71,0,0,1-12.5,16.5,17.41,17.41,0,0,1-20.2-8.8c-3.4-7-2-13.8,2.4-20,.7.3,1.3.7,2,1,1.5,2.3-.4,4.1-1,6-2.1,6.1-.1,13.4,4.3,15.9,6.4,3.5,14,2.2,18.4-3.1,3.3-3.9,3.7-8.7,1.2-13.4-.9-1.7-2.6-3.1-2-5.4A32.84,32.84,0,0,0,368,204.1Z" transform="translate(-289.6 -165)"/><path class="cls-57" d="M370,201.2c9.7,7.4,10.5,24.1-.7,33.2-10.5,8.6-26.4,6.6-34.2-6.2-4.8-7.9-2.5-20.6,4.9-27,0,.3.1.6.1,1a4.36,4.36,0,0,1-1.5,3c-6.2,7.5-4.4,15.9-.9,23.4,3,6.3,9.3,8.4,16.6,8.8a19.16,19.16,0,0,0,18.6-10c4-6.9,3.6-14.9-1.1-22A9.12,9.12,0,0,1,370,201.2Z" transform="translate(-289.6 -165)"/><path class="cls-58" d="M346,207.2h4c.6,2.6-1.8,3.7-2.6,5.6-1.7,3.9-.9,7.5,2.3,10.8a7.87,7.87,0,0,0,9.5,1.6c3.5-1.7,4.9-5.1,4.5-9.2-.2-1.8-1.3-2.9-2.4-4.2s-2.9-2.3-2.3-4.6h4a12.44,12.44,0,0,1,5.1,14.3,12.85,12.85,0,0,1-11.5,8.7c-7.1.3-12-2.3-14.2-7.6C340.3,217.7,341.9,211.1,346,207.2Z" transform="translate(-289.6 -165)"/><path class="cls-59" d="M359,207.2c1.6,3.5,6.3,4.8,6.1,9.7-.2,4.7-2.1,8.1-6.1,10s-9.3-.2-12.1-4.3c-2.7-3.9-2.6-8,.1-12,.9-1.2,1.9-2.3,2.8-3.4Z" transform="translate(-289.6 -165)"/><path class="cls-60" d="M346,207.2c-5.4,8.4-5,13.9,1.3,19.8,3.9,3.7,8.5,2.7,12.6,1.4,4.5-1.4,7.1-4.8,7.3-10.1.2-4.6-1.7-7.8-4.2-11.1.7-.3,1.3-.7,2-1,6.3,9.2,6.4,15.4.4,21.1-5.1,4.8-14.1,5.4-20.2,1.3-4-2.7-5.6-12.2-3-17.9.7-1.5,1.2-3,1.8-4.6C344.7,206.5,345.4,206.9,346,207.2Z" transform="translate(-289.6 -165)"/><path class="cls-61" d="M445,194.1c-3.4,0-7.3-3.9-6.8-7.2.5-3.6,2.7-6.1,6.4-6.6s7.3,3.4,7.4,7.1C451.9,190.5,448.1,194.1,445,194.1Z" transform="translate(-289.6 -165)"/><path class="cls-62" d="M419,187.4c.4,4.4-1.9,5.8-6.3,5.8s-6-2.5-6.3-6,2.9-6.7,6.5-6.8C416.7,180.4,419,182.9,419,187.4Z" transform="translate(-289.6 -165)"/><path class="cls-63" d="M478.4,192.2c-3.7-.1-5.3-1.7-5.4-4.9,0-3.5,1.6-5.2,5.1-5.1s5,2,4.9,5.4S481,192.2,478.4,192.2Z" transform="translate(-289.6 -165)"/><path class="cls-64" d="M347,216.8c0-2.9,4.5-7.4,7.5-7.5a8,8,0,0,1,8.4,7.8c0,3.4-4.4,8.1-7.5,8.1C351.6,225.1,347.1,220.6,347,216.8Z" transform="translate(-289.6 -165)"/><path class="cls-65" d="M445.1,182.1c3.1,0,4.8,1.5,4.9,4.8.1,3.5-1.5,5.2-5,5.2-3.2,0-4.9-1.5-5-4.8S441.6,182.2,445.1,182.1Z" transform="translate(-289.6 -165)"/><path class="cls-66" d="M418.1,187.6c-.3,3.1-1.9,4.8-4.9,4.5a5.21,5.21,0,0,1-5.1-5.5c0-3,1.8-4.6,4.8-4.3C416.1,182.5,417.7,184.7,418.1,187.6Z" transform="translate(-289.6 -165)"/><path class="cls-67" d="M480.8,186.9a3,3,0,0,1-2.4,2.8,2.58,2.58,0,0,1-2.9-2.2,2.47,2.47,0,0,1,2.5-3C479.4,184.4,480.2,185.7,480.8,186.9Z" transform="translate(-289.6 -165)"/><path class="cls-68" d="M360,218.6c-.2,2.3-1.9,3.7-5.1,3.6-3.6-.1-5-2-4.8-5.4.2-3.6,2.4-4.8,5.6-4.6S360.1,214.5,360,218.6Z" transform="translate(-289.6 -165)"/><path class="cls-69" d="M449,187c-.2,2.3-1.4,3.9-3.6,4a3.57,3.57,0,0,1-4.2-3.7c-.1-2.5,1.5-4,4-4C447.4,183.3,448.6,184.8,449,187Z" transform="translate(-289.6 -165)"/><path class="cls-70" d="M415,189.2c-1.7,1.6-3.4,1.3-4.5-.5a3.07,3.07,0,0,1,.3-4.1,3,3,0,0,1,3.7,0c1.8,1.3,2.2,2.9.5,4.6-.5-.4-.8-.9-1.3-1.3A15.93,15.93,0,0,1,415,189.2Z" transform="translate(-289.6 -165)"/><path class="cls-71" d="M444.9,185.4c1.7,0,2,.9,2,2s-.8,1.7-2,1.7c-.9,0-1.7-.4-1.7-1.4A2.22,2.22,0,0,1,444.9,185.4Z" transform="translate(-289.6 -165)"/><path class="cls-72" d="M415,189.2c-1.7-.1-3.6.1-3.6-2.3,0-.4.8-1.3,1.3-1.3,2.5,0,2.2,1.9,2.3,3.6Z" transform="translate(-289.6 -165)"/><path class="cls-13" d="M703,615.2v49.9h-6c-1.9-1-1.6-2.7-1.6-4.3,0-14.1,0-28.1.1-42.2,0-1.6-.5-3.4,1.5-4.3C699.2,613.7,701.2,613.6,703,615.2Z" transform="translate(-289.6 -165)"/><path class="cls-15" d="M681,665.1h-6a5.65,5.65,0,0,1-1.5-4.1c0-14.4-.2-28.7.1-43.1a5.92,5.92,0,0,1,.5-1.9c1-1.9,2.7-2,4.5-1.8a3.32,3.32,0,0,1,2.8,3.6c.1,15.5.5,31,0,46.4A1.8,1.8,0,0,1,681,665.1Z" transform="translate(-289.6 -165)"/><path class="cls-16" d="M681,665.1c-1.1-11.2-.1-22.5-.5-33.7-.2-5.4.7-10.7-.5-16.1,1.8-1.6,3.6-1.5,5.4,0,1.2,1.8,1.1,3.8,1.1,5.8V659c0,2.2.2,4.4-1.5,6.1Z" transform="translate(-289.6 -165)"/><path class="cls-17" d="M693,665.1h-4a4.84,4.84,0,0,1-2.4-4.6c0-14.4-.3-28.7.1-43.1a3.26,3.26,0,0,1,.4-1.4,3.35,3.35,0,0,1,3.6-1.8c2,.4,2.7,1.7,2.7,3.6.2,15.3.3,30.6.1,45.9A2.39,2.39,0,0,1,693,665.1Z" transform="translate(-289.6 -165)"/><path class="cls-18" d="M693,665.1c-1.1-10.6-.1-21.2-.5-31.8-.2-6,.6-12.1-.5-18.1a2.67,2.67,0,0,1,4,0c1.2,8.6.2,17.3.5,25.9.3,8-.6,16,.5,24Z" transform="translate(-289.6 -165)"/><path class="cls-21" d="M666,665.1h-4a5.8,5.8,0,0,1-1.5-4.1c0-14.5-.2-28.9.1-43.4a3.26,3.26,0,0,1,.4-1.4,2.67,2.67,0,0,1,2.6-1.8c2.1.2,2.7,1.6,2.8,3.5.2,15.3.3,30.6.1,45.9A2.35,2.35,0,0,1,666,665.1Z" transform="translate(-289.6 -165)"/><path class="cls-20" d="M666,665.1c-1.1-9.3-.2-18.6-.5-27.9-.3-7.3.6-14.7-.5-22,1.5-1.3,3-1.2,4.5.1,1.2,1.8,1,3.8,1,5.8v37.8c0,2.1.2,4.4-1.5,6.1C668,665.1,667,665.1,666,665.1Z" transform="translate(-289.6 -165)"/><path class="cls-22" d="M688,615.2v44.1c0,2-.1,4,1,5.8h-4V615.3A1.94,1.94,0,0,1,688,615.2Z" transform="translate(-289.6 -165)"/><path class="cls-16" d="M675,615.3v49.8h-3c-1.4-1.4-1.5-3.3-1.5-5.1V619.8a7.22,7.22,0,0,1,1-4.3A2.27,2.27,0,0,1,675,615.3Z" transform="translate(-289.6 -165)"/><path class="cls-26" d="M672,615.3v49.8h-3V615.3A1.88,1.88,0,0,1,672,615.3Z" transform="translate(-289.6 -165)"/><path class="cls-24" d="M662,615.2v49.9h-3c-1.4-1.4-1.5-3.3-1.5-5.1V619.7a8,8,0,0,1,.9-4.3A2.54,2.54,0,0,1,662,615.2Z" transform="translate(-289.6 -165)"/><path class="cls-23" d="M659,615.2v49.9h-3c-1.4-1.4-1.5-3.3-1.5-5.1V619.7a8,8,0,0,1,.9-4.3A2.54,2.54,0,0,1,659,615.2Z" transform="translate(-289.6 -165)"/><path class="cls-25" d="M656,615.2v49.9h-3v-50A2.18,2.18,0,0,1,656,615.2Z" transform="translate(-289.6 -165)"/><path class="cls-73" d="M700,315.2h3v250a1.8,1.8,0,0,1-2.6-.4c-1.2-2-.9-4.2-.9-6.3V320.2C699.5,318.5,699.3,316.8,700,315.2Z" transform="translate(-289.6 -165)"/><path class="cls-74" d="M701,565.1h2v50H653v-50a5,5,0,0,1,2.9-1.2c1-.1,2.1-.1,3.1-.1h36.9a16.15,16.15,0,0,1,3.1.2A4.9,4.9,0,0,1,701,565.1Z" transform="translate(-289.6 -165)"/><path class="cls-75" d="M573,569.3c2.2-2.4,5-3,8.1-2.9,5.2.2,10.3.1,15.5,0,4.3,0,6.4,2.1,6.4,6.4,0,6.3.2,12.7-.1,19-.2,3.9,1.2,4.8,4.8,4.7,6-.3,12-.1,18-.1,5.5,0,7.2,1.7,7.3,7.1.1,5-.2,10,.1,15,.3,4.3-1.3,7-5.2,8.7-6.6.5-13.2.1-19.7.3-1.8,0-3.7-.4-5.1,1.1,0,6.7-.2,13.3,0,20,.2,4.2-1.3,7-5.2,8.7-6.2.5-12.3.2-18.5.2-5.1,0-7.6-2.4-7.8-7.6-.3-5.8-.2-11.7,0-17.5.1-3.7-1.3-5-4.9-4.9-5.5.2-11,.1-16.5,0-6-.1-8.7-2.4-8.5-8.5.2-6.6-1.5-13.3,1.3-19.7,2.2-2.3,4.9-2.9,8.1-2.9,6.3.2,12.6,0,18.9,0,1.8-1.3,1.6-3.1,1.6-5V575.9A10.47,10.47,0,0,1,573,569.3Z" transform="translate(-289.6 -165)"/><path class="cls-76" d="M377.9,611.3c3.5,12.2-5.2,26.8-18.4,31-19.7,6.2-38.9-8.8-37.2-28.8a20.15,20.15,0,0,1,.7-2.3,3,3,0,0,1,1,1.9,13.2,13.2,0,0,1,.2,2.8c0,1.8.7,3.6,1,5.3a14.59,14.59,0,0,0,1.6,4.4c.8,1.4,1.7,2.8,2.6,4.2,2.2,3.2,5.2,4.1,9,3.9a238.14,238.14,0,0,1,23.9,0c3.9.2,6.8-.7,9-3.9a36.23,36.23,0,0,0,2.4-4.3,13.87,13.87,0,0,0,1.7-4.4,33.82,33.82,0,0,1,.9-5.4c.1-.9.3-1.8.4-2.7A10.38,10.38,0,0,1,377.9,611.3Z" transform="translate(-289.6 -165)"/><path class="cls-77" d="M543,599.3c0,6.8.1,13.7,0,20.5,0,4.5,2.2,6.7,6.7,6.7,6.3,0,12.7.1,19-.1,3.2-.1,4.5.9,4.3,4.2-.2,5.8-.1,11.7-.1,17.5,0,6.9,1.5,8.1,8.6,8.4,5.4.2,10.9-1,16.3.7-3.7,2.5-7.8,1.1-11.7,1.2-17.6.2-16.3,1.6-16.2-15.9a60.3,60.3,0,0,1,.1-8.5c.7-4.9-1.5-5.9-5.8-5.6-5.6.3-11.3.1-17,.1s-7.2-1.6-7.2-7,0-11,0-16.5C540,602.6,540.2,600.3,543,599.3Z" transform="translate(-289.6 -165)"/><path class="cls-78" d="M376,604.2c1.2.6,1,1.7,1.1,2.7a3.76,3.76,0,0,1-.1,3.7c-1.7,2.1-4.1,2-6.4,2-13.4.1-26.8.1-40.1,0-2.3,0-4.7.1-6.4-2a3.75,3.75,0,0,1-.1-3.7c.1-1.1.1-2.2,1-3C341.9,605,358.9,604.5,376,604.2Z" transform="translate(-289.6 -165)"/><path class="cls-79" d="M376,604.2c-1,2.1-2.9,1.8-4.7,1.8H330.1c-2,0-4.1.2-5.1-2.2-.1-1.7,1.3-2.7,2.1-3.9,15.7.9,31.3.4,47,.3C375.7,601,374.7,603.2,376,604.2Z" transform="translate(-289.6 -165)"/><path class="cls-80" d="M331,595.1c1.7-1.9,3.2-3.8,5.9-4.3,9.1-.5,18.1-.3,27.2,0,2,1.4,4.6,1.9,5.9,4.3,1.2,2.7-.6,3.3-2.5,3.4q-16.95.3-33.9,0C331.7,598.4,329.9,597.7,331,595.1Z" transform="translate(-289.6 -165)"/><path class="cls-81" d="M331,595.1c-.1,2.5,1.6,2.5,3.3,2.5h32.3c1.7,0,3.4,0,3.3-2.5,2.1,1.1,3,3.2,4,5.1-.7,2-2.5,1.3-3.8,1.3h-39c-1.5,0-3.4.7-4.1-1.5A10.77,10.77,0,0,1,331,595.1Z" transform="translate(-289.6 -165)"/><path class="cls-82" d="M451.1,622.9c-1.2,2.4-3.4,3-5.8,3H409c-3.5,0-6.1-1.5-7.3-4.9-1.1-3-.3-5.5,2.6-7.2a2,2,0,0,1,.5,1.8c-.3,1.5-.6,2.9.4,4.3a5.48,5.48,0,0,0,2.2,1.8c2.7,1.2,5.6.7,8.3.7,11.1-.1,22.1.4,33.2-.2A3.81,3.81,0,0,1,451.1,622.9Z" transform="translate(-289.6 -165)"/><path class="cls-83" d="M516,623c-1.4,2.3-3.5,2.9-5.9,2.9H474.2c-3.7,0-6.4-1.7-7.6-5.3-.8-2.3-.7-4.7,2.2-5.6a1,1,0,0,1,.6.9c-.1,1.4-.2,2.9.7,4.1a4.56,4.56,0,0,0,2.2,1.7c3.2,1.3,6.5.7,9.8.7,10.5,0,21.1.3,31.6-.2A3.77,3.77,0,0,1,516,623Z" transform="translate(-289.6 -165)"/><path class="cls-84" d="M364.1,590.8c-.8,1.4-2.2,1.2-3.5,1.2H340.4c-1.3,0-2.7.1-3.5-1.2C346,585.5,355.1,585.5,364.1,590.8Z" transform="translate(-289.6 -165)"/><path class="cls-85" d="M468.7,620.1a3.46,3.46,0,0,1,0-4.3,7.49,7.49,0,0,1,1.6.4c15.1.6,30.2.5,45.2,0a9.36,9.36,0,0,1,1.6-.4,3,3,0,0,1-.1,4.2c-1.7,1.3-3.7,1.3-5.7,1.3H474.4A10.51,10.51,0,0,1,468.7,620.1Z" transform="translate(-289.6 -165)"/><path class="cls-86" d="M403.9,620a3,3,0,0,1-.1-4.2c.3.1.6.1.9.2,6.9,1.2,13.8.5,20.7.5,8.4,0,16.8.4,25.2-.3a8.47,8.47,0,0,1,1.7-.4c1,.9.8,2.1.5,3.2-1.1,2.1-3.1,2.3-5.2,2.3-13,.1-26,0-39,0A7.79,7.79,0,0,1,403.9,620Z" transform="translate(-289.6 -165)"/><path class="cls-87" d="M403.8,615.8c.1-.7.2-1.3.3-2,.7-.3,1.3-.6,2-.9,14.6.1,29.3-.2,43.9.2a3.22,3.22,0,0,1,2.3,2.7l-.3.2c-1.3,1.1-2.8.9-4.3.9H408.4c-1.5,0-3,.1-4.3-1Z" transform="translate(-289.6 -165)"/><path class="cls-88" d="M468.7,615.8v-.7c.8-.6,1.6-1.3,2.4-1.9,14.6-.2,29.2-.2,43.9,0a3.35,3.35,0,0,1,2.3,2.8l-.3.1c-1.2,1.1-2.8,1-4.3,1H473.4c-1.5,0-3,.1-4.3-1Z" transform="translate(-289.6 -165)"/><path class="cls-89" d="M403.9,620c14.4,0,28.7-.1,43.1-.1,2,0,4,.3,5.8-.9a1.91,1.91,0,0,1-.7,2c-1.4,1.9-3.5,1.9-5.4,1.9-12.4.1-24.9.1-37.3,0a10.36,10.36,0,0,1-4.3-.9A2.4,2.4,0,0,1,403.9,620Z" transform="translate(-289.6 -165)"/><path class="cls-90" d="M468.7,620.1h48.4a2.24,2.24,0,0,1-1.2,1.9c-.6.2.2.2-.4.2-15.2,1.2-30.4,1.5-45.5-.2A12.74,12.74,0,0,0,468.7,620.1Z" transform="translate(-289.6 -165)"/><path class="cls-91" d="M405,622h40.8c2.2,0,4.3.1,6.3-1-.1.8-.2,1.6-1.1,2-4.8,1.7-9.8.9-14.8,1-8.3.1-16.6,0-24.9,0C409.1,623.9,406.7,624,405,622Z" transform="translate(-289.6 -165)"/><path class="cls-92" d="M470,621.9h46V623c-4.5,1.6-9.2.8-13.8.9-8.6.1-17.2,0-25.9,0C474,623.9,471.6,624.2,470,621.9Z" transform="translate(-289.6 -165)"/><path class="cls-93" d="M450,613.1c-.9,1-2.1.8-3.3.8h-37c-1.3,0-2.7.3-3.7-1,.4-.3.8-.7,1.2-.7,13.6-.1,27.3-.1,40.9,0C448.8,612.2,449.4,612.8,450,613.1Z" transform="translate(-289.6 -165)"/><path class="cls-94" d="M515,613.1c-.9,1-2.1.9-3.2.9H474.4c-1.2,0-2.4.2-3.2-.9a5.79,5.79,0,0,1,4.2-1.2h35.4A5.92,5.92,0,0,1,515,613.1Z" transform="translate(-289.6 -165)"/><path class="cls-95" d="M573,569.3c0,7.8,0,15.6.1,23.4,0,2.2-.2,4.1-3.1,3.7,0-7,.1-14,.1-21C570,573,570,570.4,573,569.3Z" transform="translate(-289.6 -165)"/><path class="cls-95" d="M603.1,628.6c.1-1.1.5-2,1.7-2,7.7.2,15.5-1,23.1.7-2.6,2.2-5.7,1.1-8.6,1.2C613.9,628.6,608.5,628.6,603.1,628.6Z" transform="translate(-289.6 -165)"/><path class="cls-96" d="M324,606.9c0,1,.1,2.1.1,3.1.6,1.2,1.2,2.4-.9,2.8-.1-.6-.1-1.1-.2-1.7C323,609.7,322.9,608.2,324,606.9Z" transform="translate(-289.6 -165)"/><path class="cls-96" d="M376.9,610c0-1,.1-2.1.1-3.1a6.22,6.22,0,0,1,.9,4.4c0,.5-.1,1-.1,1.6C375.8,612.5,376.4,611.3,376.9,610Z" transform="translate(-289.6 -165)"/><path class="cls-25" d="M656,565.1h-3v-250h3c1.7,1.8,1.5,4,1.5,6.1V558.8C657.5,561.1,657.7,563.4,656,565.1Z" transform="translate(-289.6 -165)"/><path class="cls-15" d="M680,565.1h-5c-1.7-1.7-1.5-4-1.5-6.1V321.4c0-2.1-.2-4.4,1.5-6.1h5c1.7,1.7,1.5,4,1.5,6.1V559C681.5,561.1,681.7,563.3,680,565.1Z" transform="translate(-289.6 -165)"/><path class="cls-17" d="M693,565.1h-4c-1.8-1-2.3-2.7-2.4-4.6-.1-1.5,0-3,0-4.5V323.4c0-2.8-.7-5.7,1.5-8.1h4c2.5,1.4,1.6,3.8,1.6,5.9.1,35.9,0,71.9,0,107.8,0,43.3.1,86.5,0,129.8C693.6,560.9,694.1,563.1,693,565.1Z" transform="translate(-289.6 -165)"/><path class="cls-18" d="M693,565.1c-.9-1.9-.5-3.9-.5-5.8V320.6c0-1.8.5-3.6-.5-5.3h4c1.7,1.8,1.4,4,1.4,6.1V559c0,2.1.3,4.4-1.4,6.2C695,565.1,694,565.1,693,565.1Z" transform="translate(-289.6 -165)"/><path class="cls-97" d="M669,565.1h-3c-2.3-1.2-1.6-3.5-1.6-5.4-.1-41.8,0-83.5,0-125.3,0-37.6-.1-75.2-.1-112.8,0-2.1-.5-4.3.7-6.4h4c1.7,1.7,1.5,4,1.5,6.1V558.9C670.5,561.1,670.7,563.3,669,565.1Z" transform="translate(-289.6 -165)"/><path class="cls-98" d="M665.1,315.2c1.1,6.5.5,13.1.5,19.6v225c0,1.8-.5,3.6.5,5.3h-4c-1.7-1.7-1.5-4-1.5-6.1V321.4c0-2.2-.2-4.4,1.5-6.1A29.07,29.07,0,0,1,665.1,315.2Z" transform="translate(-289.6 -165)"/><path class="cls-22" d="M688,315.3v243c0,2.3-.4,4.7,1,6.8h-4c-1.7-1.8-1.4-4-1.4-6.2V321.4c0-2.1-.3-4.4,1.4-6.2C686,315.3,687,315.3,688,315.3Z" transform="translate(-289.6 -165)"/><path class="cls-23" d="M656,565.1V315.2h3c1.7,1.8,1.5,4,1.5,6.1V558.9c0,2.2.2,4.4-1.5,6.1C658,565.1,657,565.1,656,565.1Z" transform="translate(-289.6 -165)"/><path class="cls-99" d="M659,565.1V315.2h3V565.1Z" transform="translate(-289.6 -165)"/><path class="cls-26" d="M669,565.1V315.3h3c1.7,1.7,1.5,4,1.5,6.1V559c0,2.1.2,4.4-1.5,6.1Z" transform="translate(-289.6 -165)"/><path class="cls-16" d="M672,565.1V315.3h3V565.1Z" transform="translate(-289.6 -165)"/><path class="cls-100" d="M680,565.1V315.3h2a3.41,3.41,0,0,1,1.9,3.2V558.8c0,2.1.5,4.4-1,6.3Z" transform="translate(-289.6 -165)"/><path class="cls-101" d="M701,565.1h-2c-3-1.8-1.9-4.7-1.9-7.3-.1-58.8,0-117.6,0-176.4v-60c0-2.1-.5-4.4,1-6.3h2c1.3,2,1,4.2,1,6.3Q701,443.35,701,565.1Z" transform="translate(-289.6 -165)"/><path class="cls-102" d="M683,565.1V321.6c0-2.2.3-4.4-1-6.3h3V565.1Z" transform="translate(-289.6 -165)"/><path class="cls-103" d="M698,315.2V558.3c0,2.3-.4,4.7,1,6.8h-3V315.2Z" transform="translate(-289.6 -165)"/><path class="cls-14" d="M675.1,567.3h6c1.6,1.6,1.5,3.6,1.5,5.6v34.7c0,2,.1,4-1.5,5.6h-6c-1.7-1.7-1.6-3.9-1.6-6.1-.1-11.2-.1-22.5,0-33.7C673.5,571.2,673.4,569,675.1,567.3Z" transform="translate(-289.6 -165)"/><path class="cls-7" d="M659,613.2c-3.8.6-5.2-.8-5.1-4.9q.45-18.15,0-36.3c-.1-4.1,1.3-5.4,5.1-4.9,1.6,1.8,1.6,3.9,1.6,6.1V607C660.6,609.2,660.6,611.4,659,613.2Z" transform="translate(-289.6 -165)"/><path class="cls-104" d="M659,613.2v-46h4c1.5,1.6,1.5,3.6,1.5,5.6v34.7c0,2,0,4-1.5,5.6C661.7,613.1,660.4,613.2,659,613.2Z" transform="translate(-289.6 -165)"/><path class="cls-19" d="M675.1,567.3v45.8h-4c-1.5-1.6-1.5-3.6-1.5-5.6V572.8c0-2,0-4,1.5-5.6C672.4,567.2,673.7,567.3,675.1,567.3Z" transform="translate(-289.6 -165)"/><path class="cls-30" d="M695,613.1h-3c-1.5-1.6-1.5-3.6-1.5-5.6V572.8c0-2,0-4,1.5-5.6h3c1.5,1.6,1.4,3.6,1.4,5.6v34.7C696.4,609.5,696.5,611.5,695,613.1Z" transform="translate(-289.6 -165)"/><path class="cls-28" d="M697,567.2c2.5-.2,3,1.2,3,3.4q-.15,19.65,0,39.3c0,2.2-.5,3.6-3,3.4a5.61,5.61,0,0,1-1-3.8V571.1A5.74,5.74,0,0,1,697,567.2Z" transform="translate(-289.6 -165)"/><path class="cls-105" d="M663,613.1V567.2h3c1.5,1.6,1.4,3.6,1.4,5.6v34.7c0,2,.1,4-1.4,5.6Z" transform="translate(-289.6 -165)"/><path class="cls-31" d="M692,567.2v45.9h-3c-1.5-1.6-1.5-3.6-1.5-5.6V572.8c0-2,0-4,1.5-5.6Z" transform="translate(-289.6 -165)"/><path class="cls-27" d="M671,567.2V613h-3c-1.1-1.2-1-2.8-1-4.3V571.3c0-1.5-.1-3,1-4.3A15.14,15.14,0,0,0,671,567.2Z" transform="translate(-289.6 -165)"/><path class="cls-29" d="M681,613.1V567.3h3c1.5,1.6,1.4,3.6,1.4,5.6v34.6c0,2,.1,4-1.4,5.6Z" transform="translate(-289.6 -165)"/><path class="cls-32" d="M689,567.2v45.9h-3c-1-1.1-1-2.4-1-3.8V571a5.25,5.25,0,0,1,1-3.8Z" transform="translate(-289.6 -165)"/><path class="cls-33" d="M697,567.2v46h-2v-46Z" transform="translate(-289.6 -165)"/><path class="cls-106" d="M668,567.2v45.9h-2V567.2Z" transform="translate(-289.6 -165)"/><path class="cls-34" d="M686,567.2v45.9h-2V567.3A13.4,13.4,0,0,1,686,567.2Z" transform="translate(-289.6 -165)"/><path class="cls-107" d="M598,612.2c.2,5.6-5.1,11-11.1,11.2-4.8.2-10.7-5.1-10.8-9.8-.2-6.5,4.5-11.9,10.5-12.2C592.4,601.2,597.7,606.2,598,612.2Z" transform="translate(-289.6 -165)"/><path class="cls-77" d="M614.4,602.6c2.4,2.7,4.8,5.4,7.3,8,1.3,1.4,1.3,2.5,0,3.8-2.5,2.5-5,5.2-8.3,8.7V603.5A9,9,0,0,1,614.4,602.6Z" transform="translate(-289.6 -165)"/><path class="cls-77" d="M596.1,584.3H578.6c1.9-3.5,5.1-5.6,7.5-8.4,1-1.2,1.9-.8,2.9.1,2.6,2.4,5.3,4.8,8,7.2A10.65,10.65,0,0,0,596.1,584.3Z" transform="translate(-289.6 -165)"/><path class="cls-77" d="M579.1,640.6h17.3c-1.9,3.8-5.3,5.9-7.8,8.8-.9,1-1.7.5-2.5-.3-2.6-2.5-5.2-4.9-7.8-7.4C578.6,641.3,578.8,641,579.1,640.6Z" transform="translate(-289.6 -165)"/><path class="cls-77" d="M559.8,621.2a16.71,16.71,0,0,1-2-1.5c-8.2-7.5-8-9,2-15.5Z" transform="translate(-289.6 -165)"/><path class="cls-96" d="M324.3,622c0-2.1-1.6-3.9-1-6,1.7-1.7,4-1.5,6.1-1.6,14.1-.1,28.2-.1,42.4,0,2.1,0,4.4-.2,6.1,1.6-.3,2-.7,4-1,6a5.49,5.49,0,0,1-3.3.9q-22.95-.75-45.9,0A5.43,5.43,0,0,1,324.3,622Z" transform="translate(-289.6 -165)"/><path class="cls-108" d="M377.8,616H323.2v-3.1c1-.7.7-1.9.9-2.8a8,8,0,0,0,4.3,1h44.3a8,8,0,0,0,4.3-1c.2,1-.1,2.1.9,2.8C377.8,613.9,377.8,615,377.8,616Z" transform="translate(-289.6 -165)"/><path class="cls-109" d="M324.3,622a287.71,287.71,0,0,1,52.5,0c-.6,1.3-1.3,2.7-1.9,4-2.1,1.6-4.7,1.6-7.2,1.6H333.3c-2.5,0-5-.1-7.2-1.6C324.8,625,324.9,623.4,324.3,622Z" transform="translate(-289.6 -165)"/><path class="cls-110" d="M372.9,630c-2.4,3.5-4.8,5.6-9.9,5.3a162.55,162.55,0,0,0-27.9.2c-3.8.4-5-3.2-7-5.4,1.5-1.6,3.6-1.6,5.6-1.6,11.2-.1,22.5-.1,33.7,0C369.4,628.5,371.4,628.4,372.9,630Z" transform="translate(-289.6 -165)"/><path class="cls-111" d="M372.9,630H328.1l-2.1-3.9c16.3,0,32.5,0,48.8-.1C374.2,627.3,373.6,628.7,372.9,630Z" transform="translate(-289.6 -165)"/><path class="cls-112" d="M469.1,616H517c-.3,2.5-2.3,2-3.8,2H473C471.4,617.9,469.4,618.5,469.1,616Z" transform="translate(-289.6 -165)"/><path class="cls-113" d="M404.1,615.9h47.8c-.3,2.6-2.3,1.9-3.8,1.9H407.9C406.4,617.9,404.4,618.5,404.1,615.9Z" transform="translate(-289.6 -165)"/><path class="cls-114" d="M586.9,619.5c-3.1.1-6.8-3.4-6.8-6.6a7.46,7.46,0,0,1,7.1-7.4c3.1-.1,6.8,3.4,6.8,6.6A7.53,7.53,0,0,1,586.9,619.5Z" transform="translate(-289.6 -165)"/></g><g id="Calque_2" data-name="Calque 2"><rect class="cls-2" x="535.5" y="73.1" width="227" height="57.6"/><path class="cls-1" d="M648.9,665.2v11.1h4.5q187.8,0,375.5-.1c22.5,0,36.2-13.7,36.2-36.1v-289c0-48.5.2-97,.3-145.5.1-15.2-6.2-26.3-20-32.9a9.3,9.3,0,0,0-2.4-.5c-.3,2.6,2,3.9,3.2,5.6a28.67,28.67,0,0,1,5.8,17.1c0,21.8-.1,43.6.1,65.4,0,4-1.2,5-5.1,5-43.4-.1-86.9.4-130.3-.3-19.6-.3-37.6-7.4-53.5-19.1-1.3-1-2.8-1.8-4.2-2.7-1-.4-1.2.3-1.3,1,.6,1.7,1.9,2.7,3.3,3.8,3.1,1.9,5.2,4.8,7.4,7.6,14.1,11.9,30.5,18.1,48.5,21a99.78,99.78,0,0,0,16.4,1.2c36-.1,72,0,108,0,1.7,0,3.3,0,5,.1,2.6.1,4,1.2,4.1,3.9.1,1.5.1,3,.1,4.5v345c0,10.7-2.8,20-11.8,26.8-5,3.8-10.8,5.1-16.8,5.6-2.3.2-4.7.1-7,.1h-297c-3.5,0-7-.1-10.5.1a23.49,23.49,0,0,1-2.6.1H682.9c-1.1-.1-2.1,0-3.2,0-1.9-.1-3.7,0-5.6,0-1.3-.1-2.7,0-4,0H662c-1.4-.1-2.7,0-4.1,0a58.09,58.09,0,0,0-5.9.1,4.38,4.38,0,0,0-3.1,1.1" transform="translate(-289.6 -165)"/><path class="cls-2" d="M852,238.3c-16.1-12.6-34.8-18.9-54.7-22.1-10.9-1.7-21.9-.8-32.8-.9-19.5-.2-38.9,0-58.4,0a4.62,4.62,0,0,1-.7.7c-1,2-.7,4.2-.7,6.4V658c0,2.4-.5,5.1,1.5,7.1q85.95,0,172,.1h142.5c14.5,0,25.9-7.9,29.8-20.6a35.86,35.86,0,0,0,1.7-10.8q0-176.25.1-352.4c0-4.2-1.2-5.3-5.3-5.3-39.8.1-79.7.6-119.5-.2-22.1-.5-42.3-7.9-59.3-22.6-2.5-1.8-4.4-4.4-6.9-6.1l-3-3" transform="translate(-289.6 -165)"/><path class="cls-4" d="M876.8,466.2H984.3c14.9,0,22.7-7.9,22.7-22.8v-101c0-14.1-8.1-22.2-22.3-22.2H768.3c-14.2,0-22.3,8.1-22.3,22.3V444c0,14.2,8,22.2,22.3,22.2C804.5,466.3,840.6,466.2,876.8,466.2Z" transform="translate(-289.6 -165)"/><path class="cls-41" d="M876,323.2H769c-13.5,0-20,6.4-20,19.8V443.5c0,13.2,6.5,19.7,19.6,19.7H984.5c12.8,0,19.5-6.6,19.5-19.3V342.4c0-12.5-6.6-19.2-19.1-19.2Z" transform="translate(-289.6 -165)"/><path class="cls-2" d="M857.1,208c19.8,15.5,46.5-2.5,71.5-2.7,38-.4,74.4,61.5,112.4,61.5h5.5c5.8-.2,6.9-1.3,7-7.2.1-16,0-32,0-48,0-4.7-.1-9.3,0-14,.3-10.1-3-18.6-10.6-25.4-8.6-5.6-18-7.1-28.3-7.1q-155.1.3-310.1.1a21.05,21.05,0,0,0-2.5.2,1.85,1.85,0,0,0,0,2.5c2.1,1.9,2.6,4.4,2.6,7.2-.1,11.1,0,22.2,0,33.2,0,2.3-.3,4.7,1.1,6.7,2.4,2.2,5.3,1.6,8.1,1.6,22.9.1,45.9-.1,68.8.1,23.3.2,42.8-19.2,62.3-6.2,1.1.7,5.9-.5,7.2,0" transform="translate(-289.6 -165)"/><path class="cls-6" d="M702,167.2v-1.8c-15.8-.1-31.7-.1-47.5-.2-1.7,0-3,.2-2.8,2.3a14.26,14.26,0,0,0-.9,2.7c-.4,13.6-.1,27.3-.2,40.9a7.62,7.62,0,0,0,.8,3.9c1.9,2.2,4.5,1.6,7,1.7,1.4.1,2.9,0,4.3,0H670c1.6.1,3.2,0,4.8,0h21.3c1.1.1,2.3,0,3.4,0a5.33,5.33,0,0,0,3.4-1.1c1.4-1.4,1.5-3.3,1.5-5.1V174.7A10,10,0,0,0,702,167.2Z" transform="translate(-289.6 -165)"/><path class="cls-2" d="M651.8,169.2c0-.6-.1-1.2-.1-1.7-3.3,1-2.9,3.7-2.9,6.1-.1,13.8-.1,27.6-.1,41.4l.3.2c2.9-.8,1.9-3.2,1.9-4.9.1-11.6,0-23.2.1-34.8C651,173.4,650.7,171.2,651.8,169.2Z" transform="translate(-289.6 -165)"/><path class="cls-7" d="M651.8,169.2c-2.4,1.4-1.8,3.7-1.8,5.8v35.2c0,1.7.7,3.7-.9,5.2,0,2.3-.1,4.7-.1,7V658.8c0,2.2-.1,4.3-.1,6.5h3.2c1.5-1.6,1.5-3.6,1.5-5.6,0-14.8.2-29.5-.1-44.3,0-16.7.1-33.4,0-50.1q-.15-124.95,0-249.8c.1-16.7,0-33.4,0-50.1.3-14.8.1-29.6.1-44.4,0-2-.1-4-1.6-5.6C651.9,199.9,651.9,184.6,651.8,169.2Z" transform="translate(-289.6 -165)"/><path class="cls-7" d="M702,167.2c2.1,15.3.5,30.6.9,45.9a5,5,0,0,1-1,2.1c-1.8,1.9-1.5,4.3-1.5,6.6v43.3q-.3,25.05,0,50.1,0,124.95,0,249.8c.1,16.7,0,33.4,0,50.1-.1,14.6,0,29.3,0,43.9,0,2.2-.2,4.4,1.5,6.1h2c1.6-2.4.9-5.2.9-7.8q0-217.2.1-434.4c0-2.6-.7-5.4,1-7.8h0V174C706,171.2,705.9,168.1,702,167.2Z" transform="translate(-289.6 -165)"/><path class="cls-8" d="M999.8,259.1" transform="translate(-289.6 -165)"/><path class="cls-11" d="M852,238.3" transform="translate(-289.6 -165)"/><path class="cls-5" d="M706,215.3a1.9,1.9,0,0,0-2,1.8c0,1-.1,2-.1,3V665.2a14.77,14.77,0,0,0,2.1-.1c0-25.5-.1-51-.1-76.5Q706,402,706,215.3Z" transform="translate(-289.6 -165)"/><path class="cls-12" d="M687,213.2h1.5c6.5,0,6.5,0,6.5-6.3,0-10.6.1-21.2,0-31.8-.1-8.2,1.7-7.9-8-7.8-1.5,1.6-1.5,3.6-1.5,5.6v34.7C685.5,209.6,685.4,211.6,687,213.2Z" transform="translate(-289.6 -165)"/><path class="cls-13" d="M652,215.3v49.9c1.5,1.4,3.3,1.4,5.1,1,1.9-.6,2.3-2.1,2.3-3.9.2-15,.1-30.1.1-45.1a3.29,3.29,0,0,0-.6-1.9Z" transform="translate(-289.6 -165)"/><path class="cls-14" d="M674,213.1h6c1.7-1.7,1.6-3.9,1.6-6.1.1-11.2.1-22.5,0-33.7,0-2.1,0-4.3-1.6-6.1h-6c-1.6,1.6-1.5,3.6-1.5,5.6v34.7C672.5,209.6,672.4,211.6,674,213.1Z" transform="translate(-289.6 -165)"/><path class="cls-15" d="M680,215.4h-5c-2,.9-1.6,2.7-1.6,4.3-.1,14.1.1,28.3,0,42.4,0,1.6-.4,3.5,1.8,4.1,2.1.4,4.1.5,5.5-1.6a12.41,12.41,0,0,0,.7-5.4V221.4C681.5,219.3,681.7,217.1,680,215.4Z" transform="translate(-289.6 -165)"/><path class="cls-16" d="M674,265.1c1.1-9.9.1-19.9.5-29.8.2-6.7-.6-13.4.5-20h-5a6,6,0,0,0-1.5,4.6v40.8a7.22,7.22,0,0,0,1,4.3C671,266.4,672.5,266.5,674,265.1Z" transform="translate(-289.6 -165)"/><path class="cls-17" d="M667,215.3h-4c-2.1,1.1-1.6,3.1-1.6,4.8,0,13.7.1,27.5,0,41.2,0,1.7-.7,3.8,1.6,4.7a4.21,4.21,0,0,0,4-1.1c1.5-1.8,1.4-4,1.4-6.2V220.8C668.5,219,668.5,216.9,667,215.3Z" transform="translate(-289.6 -165)"/><path class="cls-18" d="M662,265.2c1.1-9.9.1-19.9.5-29.8.2-6.7-.6-13.4.5-20h-4c-1.1,9.3-.2,18.6-.5,27.9-.3,7.3.6,14.7-.5,22A2.75,2.75,0,0,0,662,265.2Z" transform="translate(-289.6 -165)"/><path class="cls-19" d="M680,167.3v45.8h4c1.5-1.6,1.5-3.6,1.5-5.6V172.8c0-2,0-4-1.5-5.6C682.6,167.3,681.3,167.3,680,167.3Z" transform="translate(-289.6 -165)"/><path class="cls-20" d="M689.9,215.3h-4a5.71,5.71,0,0,0-1.4,4.1c0,14.4-.2,28.9.1,43.3a3.25,3.25,0,0,0,.4,1.4,2.67,2.67,0,0,0,2.6,1.8c2.1-.2,2.8-1.6,2.8-3.5.1-15.4.4-30.9-.1-46.3C690.4,215.9,690.1,215.6,689.9,215.3Z" transform="translate(-289.6 -165)"/><path class="cls-21" d="M689.9,215.3c-1.1,10.6-.1,21.2-.5,31.8-.2,6,.6,12.1-.5,18,1.5,1.3,3,1.2,4.5-.1,1.2-1.8,1-3.8,1-5.8V221.3c0-2.2.2-4.4-1.5-6.1A28.13,28.13,0,0,1,689.9,215.3Z" transform="translate(-289.6 -165)"/><path class="cls-22" d="M667,215.3v44.1c0,2,.2,4-1,5.8a2.54,2.54,0,0,0,4,0V215.4C669,215.3,668,215.3,667,215.3Z" transform="translate(-289.6 -165)"/><path class="cls-23" d="M699,215.3h-3c-1.4,1.5-1.5,3.3-1.5,5.1v39.9a8.12,8.12,0,0,0,1.1,4.8,2.88,2.88,0,0,0,3.7.2c1.3-1.7,1.2-3.7,1.2-5.7V221.4C700.5,219.2,700.6,217,699,215.3Z" transform="translate(-289.6 -165)"/><path class="cls-24" d="M696,265.2V215.3h-3v49.9A2,2,0,0,0,696,265.2Z" transform="translate(-289.6 -165)"/><path class="cls-25" d="M699,215.3v49.9a2.08,2.08,0,0,0,3,0v-50C701,215.3,700,215.3,699,215.3Z" transform="translate(-289.6 -165)"/><path class="cls-26" d="M686,265.2V215.4h-3a6,6,0,0,0-1.5,4.6v41.2a7.35,7.35,0,0,0,.9,3.8A2.54,2.54,0,0,0,686,265.2Z" transform="translate(-289.6 -165)"/><path class="cls-16" d="M683,265.1V215.3h-3v49.8A1.88,1.88,0,0,0,683,265.1Z" transform="translate(-289.6 -165)"/><path class="cls-27" d="M684,167.3v45.8h3V167.2C686,167.3,685,167.3,684,167.3Z" transform="translate(-289.6 -165)"/><path class="cls-28" d="M658,167.3c-2.5-.2-3,1.2-3,3.4q.15,19.65,0,39.3c0,2.2.5,3.6,3,3.4,1.5-1.6,1.4-3.6,1.4-5.6V173.1C659.4,170.9,659.5,168.9,658,167.3Z" transform="translate(-289.6 -165)"/><path class="cls-29" d="M674,213.1V167.3h-3c-1.6,1.6-1.4,3.7-1.4,5.7v34.5c0,2-.2,4,1.4,5.7C672,213.1,673,213.1,674,213.1Z" transform="translate(-289.6 -165)"/><path class="cls-30" d="M663,167.3h-3c-1.1,1.2-1,2.8-1,4.3V209c0,1.5-.1,3,1,4.3h3c1.5-1.6,1.5-3.6,1.5-5.6V173C664.5,170.9,664.5,168.9,663,167.3Z" transform="translate(-289.6 -165)"/><path class="cls-31" d="M663,167.3v45.9h3c1.5-1.6,1.5-3.6,1.5-5.6V172.9c0-2,.1-4-1.5-5.6Z" transform="translate(-289.6 -165)"/><path class="cls-32" d="M666,167.3v45.9h3c1-1.1,1-2.4,1-3.8V171.1a5.25,5.25,0,0,0-1-3.8Z" transform="translate(-289.6 -165)"/><path class="cls-33" d="M660,213.2v-46h-2v46Z" transform="translate(-289.6 -165)"/><path class="cls-34" d="M669,167.3v45.9h2V167.4A13.4,13.4,0,0,0,669,167.3Z" transform="translate(-289.6 -165)"/><path class="cls-35" d="M683,265.1H652v50.1a4.74,4.74,0,0,0,2.8,1.2,17.7,17.7,0,0,0,2.3.1h39.1c1,0,2.1,0,3.1-.1a5.32,5.32,0,0,0,2.9-1.2V265.1h-16C685,265.2,684,265.1,683,265.1Z" transform="translate(-289.6 -165)"/><path class="cls-12" d="M683.9,313.2c11.1.3,11.1.3,11.1-10.7,0-9.8-.2-19.6.1-29.3.1-4.4-.9-6.6-5.7-5.9a33.48,33.48,0,0,1-5.5.1c-1.5,1.6-1.5,3.6-1.5,5.6-.1,11.6-.1,23.1,0,34.7C682.4,309.6,682.4,311.6,683.9,313.2Z" transform="translate(-289.6 -165)"/><path class="cls-40" d="M683.9,313.2V267.4H674c-1.6,1.6-1.5,3.6-1.5,5.6v34.7c0,2-.1,4,1.5,5.6C677.3,313.2,680.6,313.2,683.9,313.2Z" transform="translate(-289.6 -165)"/><path class="cls-28" d="M658,267.3c-2.5-.2-3,1.2-3,3.4q.15,19.65,0,39.3c0,2.2.5,3.6,3,3.4,1.5-1.6,1.4-3.6,1.4-5.6V273.1C659.4,270.9,659.5,268.9,658,267.3Z" transform="translate(-289.6 -165)"/><path class="cls-30" d="M660,313.2h3c1.5-1.6,1.5-3.6,1.5-5.6V272.9c0-2,0-4-1.5-5.6h-3c-1.1,1.2-1,2.8-1,4.3V309C659,310.5,658.9,312,660,313.2Z" transform="translate(-289.6 -165)"/><path class="cls-31" d="M663,267.3v45.9h3c1.5-1.6,1.5-3.6,1.5-5.6V272.9c0-2,.1-4-1.5-5.6Z" transform="translate(-289.6 -165)"/><path class="cls-32" d="M666,267.3v45.9h3c1.5-1.6,1.4-3.6,1.4-5.6V273c0-2,.1-4-1.4-5.6C668,267.3,667,267.3,666,267.3Z" transform="translate(-289.6 -165)"/><path class="cls-29" d="M674,313.1V267.3h-3a5,5,0,0,0-1,3.7v38.3c0,1.3,0,2.7,1,3.7C672,313.1,673,313.1,674,313.1Z" transform="translate(-289.6 -165)"/><path class="cls-33" d="M660,313.2v-46h-2v46Z" transform="translate(-289.6 -165)"/><path class="cls-34" d="M671,313.1V267.3h-2v45.9A13.4,13.4,0,0,0,671,313.1Z" transform="translate(-289.6 -165)"/><path class="cls-13" d="M652,615.3v49.9h6c1.9-1,1.6-2.7,1.6-4.3,0-14.1,0-28.1-.1-42.2,0-1.6.5-3.4-1.5-4.3C655.9,613.8,653.8,613.7,652,615.3Z" transform="translate(-289.6 -165)"/><path class="cls-15" d="M674,665.1h6a5.65,5.65,0,0,0,1.5-4.1c0-14.4.2-28.7-.1-43.1a5.92,5.92,0,0,0-.5-1.9c-1-1.9-2.7-2-4.5-1.8a3.32,3.32,0,0,0-2.8,3.6c-.1,15.5-.5,31,0,46.4A1.27,1.27,0,0,0,674,665.1Z" transform="translate(-289.6 -165)"/><path class="cls-16" d="M674,665.1c1.1-11.2.1-22.5.5-33.7.2-5.4-.7-10.7.5-16.1-1.8-1.6-3.6-1.5-5.4,0-1.2,1.8-1.1,3.8-1.1,5.8V659c0,2.2-.2,4.4,1.5,6.1Z" transform="translate(-289.6 -165)"/><path class="cls-17" d="M662,665.2h4a4.84,4.84,0,0,0,2.4-4.6c0-14.4.3-28.7-.1-43.1a3.26,3.26,0,0,0-.4-1.4,3.35,3.35,0,0,0-3.6-1.8c-2,.4-2.7,1.7-2.7,3.6-.2,15.3-.3,30.6-.1,45.9A2.39,2.39,0,0,0,662,665.2Z" transform="translate(-289.6 -165)"/><path class="cls-18" d="M662,665.2c1.1-10.6.1-21.2.5-31.8.2-6-.6-12.1.5-18.1a2.67,2.67,0,0,0-4,0c-1.2,8.6-.2,17.3-.5,25.9-.3,8,.6,16-.5,24Z" transform="translate(-289.6 -165)"/><path class="cls-21" d="M689,665.2h4a5.8,5.8,0,0,0,1.5-4.1c0-14.5.2-28.9-.1-43.4a3.26,3.26,0,0,0-.4-1.4,2.67,2.67,0,0,0-2.6-1.8c-2.1.2-2.7,1.6-2.8,3.5-.2,15.3-.3,30.6-.1,45.9A2.66,2.66,0,0,0,689,665.2Z" transform="translate(-289.6 -165)"/><path class="cls-20" d="M689,665.2c1.1-9.3.2-18.6.5-27.9.3-7.3-.6-14.7.5-22-1.5-1.3-3-1.2-4.5.1-1.2,1.8-1,3.8-1,5.8V659c0,2.1-.2,4.4,1.5,6.1C687,665.2,688,665.2,689,665.2Z" transform="translate(-289.6 -165)"/><path class="cls-22" d="M667,615.3v44.1c0,2,.1,4-1,5.8h4V615.4A1.94,1.94,0,0,0,667,615.3Z" transform="translate(-289.6 -165)"/><path class="cls-16" d="M680,615.4v49.8h3c1.4-1.4,1.5-3.3,1.5-5.1V619.9a7.22,7.22,0,0,0-1-4.3A2.27,2.27,0,0,0,680,615.4Z" transform="translate(-289.6 -165)"/><path class="cls-26" d="M683,615.3v49.8h3V615.3A2,2,0,0,0,683,615.3Z" transform="translate(-289.6 -165)"/><path class="cls-24" d="M693,615.3v49.9h3c1.4-1.4,1.5-3.3,1.5-5.1V619.8a8,8,0,0,0-.9-4.3A2.54,2.54,0,0,0,693,615.3Z" transform="translate(-289.6 -165)"/><path class="cls-23" d="M696,615.3v49.9h3c1.4-1.4,1.5-3.3,1.5-5.1V619.8a8,8,0,0,0-.9-4.3A2.54,2.54,0,0,0,696,615.3Z" transform="translate(-289.6 -165)"/><path class="cls-25" d="M699,615.3v49.9h3v-50A2.18,2.18,0,0,0,699,615.3Z" transform="translate(-289.6 -165)"/><path class="cls-73" d="M655,315.3h-3v250a1.8,1.8,0,0,0,2.6-.4c1.2-2,.9-4.2.9-6.3V320.3C655.5,318.6,655.7,316.9,655,315.3Z" transform="translate(-289.6 -165)"/><path class="cls-74" d="M654,565.2h-2v50h50v-50a5,5,0,0,0-2.9-1.2c-1-.1-2.1-.1-3.1-.1H659.1a16.15,16.15,0,0,0-3.1.2A4.9,4.9,0,0,0,654,565.2Z" transform="translate(-289.6 -165)"/><path class="cls-25" d="M699,565.2h3v-250h-3c-1.7,1.8-1.5,4-1.5,6.1V558.9C697.5,561.2,697.3,563.4,699,565.2Z" transform="translate(-289.6 -165)"/><path class="cls-15" d="M675,565.1h5c1.7-1.7,1.5-4,1.5-6.1V321.4c0-2.1.2-4.4-1.5-6.1h-5c-1.7,1.7-1.5,4-1.5,6.1V559C673.5,561.2,673.3,563.4,675,565.1Z" transform="translate(-289.6 -165)"/><path class="cls-17" d="M662,565.2h4c1.8-1,2.3-2.7,2.4-4.6.1-1.5,0-3,0-4.5V323.5c0-2.8.7-5.7-1.5-8.1h-4c-2.5,1.4-1.6,3.8-1.6,5.9-.1,35.9,0,71.9,0,107.8,0,43.3-.1,86.5,0,129.8C661.4,560.9,660.9,563.1,662,565.2Z" transform="translate(-289.6 -165)"/><path class="cls-18" d="M662,565.2c.9-1.9.5-3.9.5-5.8V320.7c0-1.8-.5-3.6.5-5.3h-4c-1.7,1.8-1.4,4-1.4,6.1V559.1c0,2.1-.3,4.4,1.4,6.2C660,565.2,661,565.2,662,565.2Z" transform="translate(-289.6 -165)"/><path class="cls-97" d="M686,565.2h3c2.3-1.2,1.6-3.5,1.6-5.4.1-41.8,0-83.5,0-125.3,0-37.6.1-75.2.1-112.8,0-2.1.5-4.3-.7-6.4h-4c-1.7,1.7-1.5,4-1.5,6.1V559C684.5,561.2,684.3,563.4,686,565.2Z" transform="translate(-289.6 -165)"/><path class="cls-98" d="M689.9,315.3c-1.1,6.5-.5,13.1-.5,19.6v225c0,1.8.5,3.6-.5,5.3h4c1.7-1.7,1.5-4,1.5-6.1V321.5c0-2.2.2-4.4-1.5-6.1A28.11,28.11,0,0,0,689.9,315.3Z" transform="translate(-289.6 -165)"/><path class="cls-22" d="M667,315.3v243c0,2.3.4,4.7-1,6.8h4c1.7-1.8,1.4-4,1.4-6.2V321.4c0-2.1.3-4.4-1.4-6.2C669,315.3,668,315.3,667,315.3Z" transform="translate(-289.6 -165)"/><path class="cls-23" d="M699,565.2V315.3h-3c-1.7,1.8-1.5,4-1.5,6.1V559c0,2.2-.2,4.4,1.5,6.1C697,565.2,698,565.2,699,565.2Z" transform="translate(-289.6 -165)"/><path class="cls-99" d="M696,565.2V315.3h-3V565.2Z" transform="translate(-289.6 -165)"/><path class="cls-26" d="M686,565.2V315.4h-3c-1.7,1.7-1.5,4-1.5,6.1V559.1c0,2.1-.2,4.4,1.5,6.1Z" transform="translate(-289.6 -165)"/><path class="cls-16" d="M683,565.2V315.4h-3V565.2A15,15,0,0,1,683,565.2Z" transform="translate(-289.6 -165)"/><path class="cls-100" d="M675,565.1V315.3h-2a3.41,3.41,0,0,0-1.9,3.2V558.8c0,2.1-.5,4.4,1,6.3Z" transform="translate(-289.6 -165)"/><path class="cls-101" d="M654,565.2h2c3-1.8,1.9-4.7,1.9-7.3.1-58.8,0-117.6,0-176.4v-60c0-2.1.5-4.4-1-6.3h-2c-1.3,2-1,4.2-1,6.3Q654,443.45,654,565.2Z" transform="translate(-289.6 -165)"/><path class="cls-102" d="M672,565.1V321.6c0-2.2-.3-4.4,1-6.3h-3V565.1A13.35,13.35,0,0,0,672,565.1Z" transform="translate(-289.6 -165)"/><path class="cls-103" d="M657,315.3V558.4c0,2.3.4,4.7-1,6.8h3V315.3Z" transform="translate(-289.6 -165)"/><path class="cls-14" d="M680,567.3h-6c-1.6,1.6-1.5,3.6-1.5,5.6v34.7c0,2-.1,4,1.5,5.6h6c1.7-1.7,1.6-3.9,1.6-6.1.1-11.2.1-22.5,0-33.7C681.6,571.3,681.6,569.1,680,567.3Z" transform="translate(-289.6 -165)"/><path class="cls-7" d="M696,613.2c3.8.6,5.2-.8,5.1-4.9q-.45-18.15,0-36.3c.1-4.1-1.3-5.4-5.1-4.9-1.6,1.8-1.6,3.9-1.6,6.1V607C694.4,609.3,694.4,611.5,696,613.2Z" transform="translate(-289.6 -165)"/><path class="cls-104" d="M696,613.2v-46h-4c-1.5,1.6-1.5,3.6-1.5,5.6v34.7c0,2,0,4,1.5,5.6C693.3,613.2,694.6,613.2,696,613.2Z" transform="translate(-289.6 -165)"/><path class="cls-19" d="M680,567.3v45.8h4c1.5-1.6,1.5-3.6,1.5-5.6V572.8c0-2,0-4-1.5-5.6C682.6,567.3,681.3,567.3,680,567.3Z" transform="translate(-289.6 -165)"/><path class="cls-30" d="M660,613.2h3c1.5-1.6,1.5-3.6,1.5-5.6V572.9c0-2,0-4-1.5-5.6h-3c-1.5,1.6-1.4,3.6-1.4,5.6v34.7C658.6,609.6,658.5,611.6,660,613.2Z" transform="translate(-289.6 -165)"/><path class="cls-28" d="M658,567.3c-2.5-.2-3,1.2-3,3.4q.15,19.65,0,39.3c0,2.2.5,3.6,3,3.4a5.61,5.61,0,0,0,1-3.8V571.2A5.74,5.74,0,0,0,658,567.3Z" transform="translate(-289.6 -165)"/><path class="cls-105" d="M692,613.2V567.3h-3c-1.5,1.6-1.4,3.6-1.4,5.6v34.7c0,2-.1,4,1.4,5.6Z" transform="translate(-289.6 -165)"/><path class="cls-31" d="M663,567.3v45.9h3c1.5-1.6,1.5-3.6,1.5-5.6V572.9c0-2,0-4-1.5-5.6Z" transform="translate(-289.6 -165)"/><path class="cls-27" d="M684,567.3v45.8h3c1.1-1.2,1-2.8,1-4.3V571.4c0-1.5.1-3-1-4.3A15.14,15.14,0,0,1,684,567.3Z" transform="translate(-289.6 -165)"/><path class="cls-29" d="M674,613.1V567.3h-3c-1.5,1.6-1.4,3.6-1.4,5.6v34.6c0,2-.1,4,1.4,5.6A30,30,0,0,0,674,613.1Z" transform="translate(-289.6 -165)"/><path class="cls-32" d="M666,567.3v45.9h3c1-1.1,1-2.4,1-3.8V571.1a5.25,5.25,0,0,0-1-3.8Z" transform="translate(-289.6 -165)"/><path class="cls-33" d="M658,567.3v46h2v-46Z" transform="translate(-289.6 -165)"/><path class="cls-106" d="M687,567.3v45.9h2V567.3Z" transform="translate(-289.6 -165)"/><path class="cls-34" d="M669,567.3v45.9h2V567.4A13.4,13.4,0,0,0,669,567.3Z" transform="translate(-289.6 -165)"/><path class="cls-3" d="M992.5,639.9H760.4A33.93,33.93,0,0,1,726.5,606V226.3a33.93,33.93,0,0,1,33.9-33.9H992.5a33.93,33.93,0,0,1,33.9,33.9V606A33.86,33.86,0,0,1,992.5,639.9Z" transform="translate(-289.6 -165)"/><rect class="cls-2" x="736.8" y="73.1" width="25.6" height="68.2"/></g><path id="fondDroit" class="cls-114" d="M971.6,623.1H781.4a33.93,33.93,0,0,1-33.9-33.9v-346a33.93,33.93,0,0,1,33.9-33.9H971.6a33.93,33.93,0,0,1,33.9,33.9v346A33.93,33.93,0,0,1,971.6,623.1Z" transform="translate(-289.6 -165)"/><path id="fondGauche" class="cls-114" d="M479.1,292.8h107c13.5,0,20,11.2,20,34.9V504.5c0,23.2-6.5,34.7-19.6,34.7H370.6c-12.8,0-19.5-11.6-19.5-34V326.6c0-22.1,6.6-33.8,19.1-33.8Z" transform="translate(-289.6 -165)"/></svg>